<svg width="40" height="48" viewBox="0 0 40 48" fill="none" xmlns="http://www.w3.org/2000/svg">
<path d="M13.25 22.875L17.75 27.375L27.875 17.25M38 24C38 35.044 25.9536 43.0763 21.5705 45.6334C21.0723 45.924 20.8233 46.0693 20.4718 46.1447C20.199 46.2032 19.801 46.2032 19.5282 46.1447C19.1767 46.0693 18.9277 45.924 18.4295 45.6334C14.0464 43.0763 2 35.044 2 24V13.2396C2 11.4407 2 10.5412 2.29421 9.76804C2.55412 9.08502 2.97646 8.47558 3.52473 7.9924C4.14536 7.44544 4.98755 7.12962 6.67191 6.49799L18.736 1.97397C19.2037 1.79856 19.4376 1.71085 19.6782 1.67608C19.8916 1.64524 20.1084 1.64524 20.3218 1.67608C20.5624 1.71085 20.7963 1.79856 21.264 1.97397L33.3281 6.49799C35.0125 7.12962 35.8546 7.44544 36.4753 7.9924C37.0235 8.47558 37.4459 9.08502 37.7058 9.76804C38 10.5412 38 11.4407 38 13.2396V24Z" stroke="black" stroke-width="2.5" stroke-linecap="round" stroke-linejoin="round"/>
</svg>
